<svg xmlns="http://www.w3.org/2000/svg" version="1.1" width="159.000000mm" height="155.860000mm" viewBox="0 0 159.000000 155.860000">
		<defs>
			<style type="text/css"><![CDATA[
				.cut {
    stroke: black;
    stroke-width: 0.1;
    fill: none;
    color: black;
}

.etch {
    stroke: red;
    stroke-width: 0.1;
    fill: none;
    color: red;
}

.route {
    stroke: fuchsia;
    stroke-width: 0.1;
    fill: none;
}

text {
    text-anchor: middle;
    font-size: 15;
    font-weight: light;
}

text.etch {
    fill: red;
}

text.cut {
    font-size: 8;
    fill: black;
}
			]]></style>
		</defs>
	<g transform="translate(5.000000, 5.000000)"><g transform="translate(74.500000, 72.930000)"><g transform="translate(-68.200000, -67.930000)"><g transform="translate(68.200000, 0.000000)"><g transform="translate(-63.200000,0)"></g></g>
<g transform="translate(68.200000, 10.000000)"><g transform="translate(-16.500000,0)"><circle r="2.100000" cx="7.000000" cy="7.500000" class="cut" />
<circle r="2.100000" cx="26.000000" cy="7.500000" class="cut" /></g></g>
<g transform="translate(68.200000, 83.560000)"><g transform="translate(-63.200000,0)"></g></g>
<g transform="translate(68.200000, 128.560000)"><g transform="translate(-68.200000,0)"><g transform="translate(26.780000, 0)"><rect width="28.280000" height="7.300000" class="cut" /></g>
<g transform="translate(81.340000, 0)"><rect width="28.280000" height="7.300000" class="cut" /></g></g></g></g>
<g transform="translate(-74.500000, -72.930000)"><path d="M0 0 l149 0 l0 29.172 l-6.3 0 l0 12.686 l-8.05 0 l0 -2.15 l-3 0 l0 2.15 l-8.05 0 l0 3.8 l8.05 0 l0 2.15 l3 0 l0 -2.15 l8.05 0 l0 12.686 l6.3 0 l0 29.172 l-6.3 0 l0 12.686 l-8.05 0 l0 -2.15 l-3 0 l0 2.15 l-8.05 0 l0 3.8 l8.05 0 l0 2.15 l3 0 l0 -2.15 l8.05 0 l0 12.686 l6.3 0 l0 29.172 l-149 0 l0 -29.172 l6.3 0 l0 -12.686 l8.05 0 l0 2.15 l3 0 l0 -2.15 l8.05 0 l0 -3.8 l-8.05 0 l0 -2.15 l-3 0 l0 2.15 l-8.05 0 l0 -12.686 l-6.3 0 l0 -29.172 l6.3 0 l0 -12.686 l8.05 0 l0 2.15 l3 0 l0 -2.15 l8.05 0 l0 -3.8 l-8.05 0 l0 -2.15 l-3 0 l0 2.15 l-8.05 0 l0 -12.686 l-6.3 0 Z" class="cut" />
<path d="M-1.5875 -1.5875 l152.175 0 l0 32.347 l-6.3 0 l0 12.686 l-11.225 0 l0 -2.15 l0.175 0 l0 2.15 l-8.05 0 l0 0.625 l8.05 0 l0 2.15 l-0.175 0 l0 -2.15 l11.225 0 l0 12.686 l6.3 0 l0 32.347 l-6.3 0 l0 12.686 l-11.225 0 l0 -2.15 l0.175 0 l0 2.15 l-8.05 0 l0 0.625 l8.05 0 l0 2.15 l-0.175 0 l0 -2.15 l11.225 0 l0 12.686 l6.3 0 l0 32.347 l-152.175 0 l0 -32.347 l6.3 0 l0 -12.686 l11.225 0 l0 2.15 l-0.175 0 l0 -2.15 l8.05 0 l0 -0.625 l-8.05 0 l0 -2.15 l0.175 0 l0 2.15 l-11.225 0 l0 -12.686 l-6.3 0 l0 -32.347 l6.3 0 l0 -12.686 l11.225 0 l0 2.15 l-0.175 0 l0 -2.15 l8.05 0 l0 -0.625 l-8.05 0 l0 -2.15 l0.175 0 l0 2.15 l-11.225 0 l0 -12.686 l-6.3 0 Z" class="cut" />
<circle r="1.900000" cx="3.150000" cy="14.586000" class="cut" />
<circle r="1.900000" cx="3.150000" cy="72.930000" class="cut" />
<circle r="1.900000" cx="3.150000" cy="131.274000" class="cut" />
<circle r="1.900000" cx="145.850000" cy="14.586000" class="cut" />
<circle r="1.900000" cx="145.850000" cy="72.930000" class="cut" />
<circle r="1.900000" cx="145.850000" cy="131.274000" class="cut" /></g></g></g></svg>