<svg xmlns="http://www.w3.org/2000/svg" version="1.1" width="159.000000mm" height="202.700000mm" viewBox="0 0 159.000000 202.700000">
		<defs>
			<style type="text/css"><![CDATA[
				.cut {
    stroke: black;
    stroke-width: 0.1;
    fill: none;
    color: black;
}

.etch {
    stroke: red;
    stroke-width: 0.1;
    fill: none;
    color: red;
}

.route {
    stroke: fuchsia;
    stroke-width: 0.1;
    fill: none;
}

text {
    text-anchor: middle;
    font-size: 15;
    font-weight: light;
}

text.etch {
    fill: red;
}

text.cut {
    font-size: 8;
    fill: black;
}
			]]></style>
		</defs>
	<g transform="translate(5.000000, 5.000000)"><g transform="translate(74.500000, 96.350000)"><g transform="translate(-63.200000, -85.050000)"><g transform="translate(10.000000, 10.000000)"><g transform="translate(53.200000, 0.000000)"><g transform="translate(-51.150000,0)"><g transform="translate(0.000000, 13.600000)"><rect width="44.000000" height="55.000000" class="etch" /><circle r="1.250000" cx="4.220000" cy="27.500000" class="cut" /><circle r="1.250000" cx="39.780000" cy="27.500000" class="cut" /></g>
<g transform="translate(49.000000, 0.000000)"><rect width="53.300000" height="68.600000" class="etch" /><circle r="1.250000" cx="2.500000" cy="14.000000" class="cut" /><circle r="1.250000" cx="50.800000" cy="15.300000" class="cut" /><circle r="1.250000" cx="7.600000" cy="66.100000" class="cut" /><circle r="1.250000" cx="35.500000" cy="66.100000" class="cut" /></g></g></g>
<g transform="translate(53.200000, 73.600000)"><g transform="translate(-53.200000,0)"><g transform="translate(0.000000, 0.000000)"><rect width="46.400000" height="76.500000" class="etch" /><circle r="1.250000" cx="23.200000" cy="9.350000" class="cut" /><circle r="1.250000" cx="23.200000" cy="67.150000" class="cut" /></g>
<g transform="translate(51.400000, 0.000000)"><rect width="55.000000" height="75.000000" class="etch" /><circle r="1.250000" cx="2.935000" cy="3.100000" class="cut" /><circle r="1.250000" cx="52.065000" cy="3.100000" class="cut" /><circle r="1.250000" cx="52.065000" cy="71.900000" class="cut" /><circle r="1.250000" cx="2.935000" cy="71.900000" class="cut" /></g></g></g></g></g>
<g transform="translate(-74.500000, -96.350000)"><path d="M6.3 6.3 l27.28 0 l0 -6.3 l27.28 0 l0 6.3 l27.28 0 l0 -6.3 l27.28 0 l0 6.3 l27.28 0 l0 25.7285714285714 l6.3 0 l0 25.7285714285714 l-6.3 0 l0 25.7285714285714 l6.3 0 l0 25.7285714285714 l-6.3 0 l0 25.7285714285714 l6.3 0 l0 25.7285714285714 l-6.3 0 l0 25.7285714285714 l-27.28 0 l0 6.3 l-27.28 0 l0 -6.3 l-27.28 0 l0 6.3 l-27.28 0 l0 -6.3 l-27.28 0 l0 -25.7285714285714 l-6.3 0 l0 -25.7285714285714 l6.3 0 l0 -25.7285714285714 l-6.3 0 l0 -25.7285714285714 l6.3 0 l0 -25.7285714285714 l-6.3 0 l0 -25.7285714285714 l6.3 0 l0 -25.7285714285714 Z" class="cut" /></g></g></g></svg>