<?xml version="1.0" encoding="UTF-8"?>
<!DOCTYPE svg PUBLIC "-//W3C//DTD SVG 1.1//EN"
    "http://www.w3.org/Graphics/SVG/1.1/DTD/svg11.dtd">
<svg xmlns="http://www.w3.org/2000/svg" xmlns:xlink="http://www.w3.org/1999/xlink" version="1.1" width="161.1681570096153mm" height="96.43095656952532mm" viewBox="0.0 0.0 161.1681570096153 96.43095656952532"><g stroke="rgb(0,0,255)" stroke-width="1" fill="none"><polyline points="1.672097878690928e1,9.629160535888343e1 1.7683757705732525e1,9.638545449424149e1 1.8682175496194034e1,9.643095656952532e1 1.9680593286655544e1,9.642406583288725e1 2.0679011077117053e1,9.636472522104317e1 2.1378932845936653e1,9.629160535888343e1 2.1677428867578563e1,9.625243986787684e1 2.2675846658040072e1,9.608625615658023e1 2.367426444850158e1,9.58647200979314e1 2.467268223896309e1,9.558581065095377e1 2.5541510799078367e1,9.529434288395056e1 2.56711000294246e1,9.524684046634525e1 2.666951781988611e1,9.484431177984628e1 2.7667935610347627e1,9.437370747723232e1 2.7817359604477666e1,9.42970804090177e1 2.8666353400809136e1,9.382918415029755e1 2.9519214976431762e1,9.329981793408481e1 2.9664771191270646e1,9.32031101025058e1 3.0663188981732155e1,9.24853455682505e1 3.0897079529721573e1,9.230255545915193e1 3.1661606772193664e1,9.166206878850593e1 3.205434846662612e1,9.130529298421907e1 3.2660024562655174e1,9.071374327184772e1 3.3045849897396025e1,9.030803050928618e1 3.365844235311668e1,8.961130675922514e1 3.3904813913418266e1,8.931076803435332e1 3.465314465984544e1,8.831350555942043e1 3.465686014357819e1,8.830819909194072e1 3.5306127879340124e1,8.731624308448757e1 3.56552779340397e1,8.672076905719271e1 3.587486869156564e1,8.631898060955469e1 3.6367669044198884e1,8.532171813462182e1 3.665369572450121e1,8.466536223762442e1 3.679085840600282e1,8.432445565968894e1 3.7149320253318045e1,8.332719318475606e1 3.744683860730657e1,8.232993070982319e1 4.4394452642874136e1,5.640110636156843e1 4.4641038048193295e1,5.5556269287211535e1 4.563945583865481e1,5.5567714320552085e1 7.958566071434615e1,5.5567714320552085e1 8.058407850480766e1,5.5528501696002174e1 8.158249629526917e1,5.5567714320552085e1 1.155287011709605e2,5.5567714320552085e1 1.1652711896142203e2,5.555626928721155e1 1.1677370436674117e2,5.640110636156843e1 1.2372131840230873e2,8.232993070982319e1 1.2401883675629725e2,8.332719318475606e1 1.2437729860361249e2,8.432445565968894e1 1.2451446128511411e2,8.466536223762446e1 1.2480048796541641e2,8.532171813462182e1 1.2529328831804966e2,8.631898060955469e1 1.2551287907557561e2,8.672076905719273e1 1.2586202913027518e2,8.731624308448757e1 1.2651129686603711e2,8.830819909194074e1 1.2651501234976985e2,8.831350555942043e1 1.2726334309619703e2,8.931076803435332e1 1.2750971465649864e2,8.961130675922519e1 1.281223071122193e2,9.030803050928618e1 1.2850813244696013e2,9.071374327184773e1 1.2911380854298918e2,9.130529298421907e1 1.2950655023742166e2,9.166206878850595e1 1.3027107747989373e2,9.230255545915193e1 1.305049680278832e2,9.248534556825052e1 1.3150338581834467e2,9.320311010250582e1 1.3164894203318352e2,9.329981793408481e1 1.325018036088062e2,9.382918415029756e1 1.3335079740513766e2,9.42970804090177e1 1.3350022139926767e2,9.437370747723233e1 1.344986391897292e2,9.484431177984628e1 1.3549705698019073e2,9.524684046634526e1 1.3562664621053693e2,9.529434288395056e1 1.364954747706522e2,9.558581065095376e1 1.3749389256111374e2,9.58647200979314e1 1.3849231035157527e2,9.608625615658022e1 1.3949072814203674e2,9.625243986787686e1 1.3978922416367857e2,9.629160535888343e1 1.4048914593249827e2,9.636472522104317e1 1.414875637229598e2,9.642406583288724e1 1.4248598151342128e2,9.643095656952532e1 1.434843993038828e2,9.638545449424149e1 1.4444717822270601e2,9.629160535888343e1 1.4448281709434428e2,9.628718125456645e1 1.4548123488480584e2,9.613530714533486e1 1.4647965267526732e2,9.592851525136737e1 1.4747807046572885e2,9.566494194513608e1 1.4847648825619032e2,9.53420871643625e1 1.4860975550553272e2,9.529434288395056e1 1.4947490604665185e2,9.495668366524528e1 1.5047332383711338e2,9.45045076999929e1 1.5088560438226338e2,9.42970804090177e1 1.5147174162757486e2,9.398010216853639e1 1.524701594180364e2,9.3376362984958e1 1.525874597474852e2,9.329981793408481e1 1.5346857720849792e2,9.268390112208962e1 1.5396532430316165e2,9.230255545915193e1 1.544669949989594e2,9.189001584918529e1 1.5512259323974246e2,9.130529298421907e1 1.5546541278942092e2,9.097694744504659e1 1.5611409467045286e2,9.030803050928618e1 1.5646383057988245e2,8.991867675042029e1 1.5697305868645884e2,8.931076803435332e1 1.5746224837034393e2,8.867444540524404e1 1.577213894328653e2,8.831350555942043e1 1.5837437265236636e2,8.731624308448757e1 1.5846066616080546e2,8.717359944331425e1 1.5894311346459216e2,8.631898060955469e1 1.5943591381722499e2,8.532171813462182e1 1.5945908395126693e2,8.527096858113795e1 1.5985910317902892e2,8.432445565968894e1 1.6021756502634415e2,8.332719318475606e1 1.6045750174172846e2,8.253936322467565e1 1.6051508338033267e2,8.232993070982319e1 1.6075457724642362e2,8.133266823489032e1 1.6093826191927022e2,8.033540575995744e1 1.6106776040215448e2,7.933814328502456e1 1.6114417916645021e2,7.834088081009169e1 1.611681570096153e2,7.734361833515882e1 1.6113989224630754e2,7.634635586022594e1 1.6105915099980243e2,7.534909338529306e1 1.6092525741624743e2,7.435183091036018e1 1.607370648299117e2,7.335456843542731e1 1.6049317764272504e2,7.235730596049443e1 1.4419302146682173e2,1.152429498958906e1 1.4391275242158133e2,1.052703251465618e1 1.4356217303941642e2,9.529770039723312e0 1.434843993038828e2,9.335205694377416e0 1.4312927924457256e2,8.53250756479043e0 1.4260585727910797e2,7.535245089857563e0 1.4248598151342128e2,7.330089790656014e0 1.4198043482199682e2,6.537982614924681e0 1.414875637229598e2,5.85825653048152e0 1.4123658383420423e2,5.540720139991814e0 1.4048914593249827e2,4.68875621699209e0 1.4034975862452586e2,4.5434576650589324e0 1.3949072814203674e2,3.7270967859940436e0 1.39280765713574e2,3.546195190126051e0 1.3849231035157527e2,2.9235241389140434e0 1.3796005353904093e2,2.5489327151931835e0 1.3749389256111374e2,2.2481171819300467e0 1.364954747706522e2,1.6813632296767853e0 1.3623916783192536e2,1.551670240260302e0 1.3549705698019073e2,1.2098593457121147e0 1.344986391897292e2,8.240980201726895e-1 1.3363559441215907e2,5.544077653274346e-1 1.3350022139926767e2,5.172261479482039e-1 1.325018036088062e2,2.843075667823882e-1 1.3150338581834467e2,1.2186863346672894e-1 1.305049680278832e2,2.7615221282752955e-2 1.2950655023742166e2,3.552713678800501e-15 8.158249629526917e1,3.552713678800501e-15 8.058407850480766e1,2.4333875565515584e-2 7.958566071434615e1,0.0e0 3.1661606772193664e1,7.105427357601002e-15 3.0663188981732155e1,2.7615221282756508e-2 2.9664771191270646e1,1.2186863346672894e-1 2.8666353400809136e1,2.843075667823829e-1 2.7667935610347627e1,5.172261479482021e-1 2.753256259745619e1,5.544077653274346e-1 2.666951781988611e1,8.240980201726824e-1 2.56711000294246e1,1.2098593457121005e0 2.4928989177689942e1,1.551670240260302e0 2.467268223896309e1,1.681363229676771e0 2.367426444850158e1,2.248117181930045e0 2.3208103470574386e1,2.5489327151931835e0 2.2675846658040072e1,2.9235241389140256e0 2.188739129604129e1,3.546195190126051e0 2.1677428867578563e1,3.727096785994026e0 2.0818398385089417e1,4.5434576650589324e0 2.0679011077117053e1,4.68875621699208e0 1.993157317541109e1,5.540720139991814e0 1.9680593286655544e1,5.858256530481473e0 1.9187722187618462e1,6.537982614924681e0 1.8682175496194034e1,7.330089790655963e0 1.8562299730507327e1,7.535245089857563e0 1.803887776504272e1,8.53250756479043e0 1.7683757705732525e1,9.335205694377372e0 1.760598397019888e1,9.529770039723312e0 1.725540458803397e1,1.052703251465618e1 1.6975135542793563e1,1.152429498958906e1 6.749793668902555e-1,7.235730596049443e1 4.3109217970358316e-1,7.335456843542731e1 2.4289959336787348e-1,7.435183091036018e1 1.090060098128589e-1,7.534909338529306e1 2.826476330774952e-2,7.634635586022594e1 0.0e0,7.734361833515882e1 2.3977843165095436e-2,7.834088081009169e1 1.003966074608087e-1,7.933814328502456e1 2.2989509034507805e-1,8.033540575995744e1 4.135797631916809e-1,8.133266823489032e1 6.530736292826376e-1,8.232993070982319e1 7.106552678868496e-1,8.25393632246757e1 9.505919832711598e-1,8.332719318475606e1 1.309053830586377e0,8.432445565968894e1 1.709073058348359e0,8.527096858113794e1 1.7322431923903139e0,8.532171813462182e1 2.2250435450231336e0,8.631898060955469e1 2.7074908488098686e0,8.71735994433143e1 2.7937843572489527e0,8.731624308448757e1 3.4467675767499966e0,8.831350555942043e1 3.7059086392713816e0,8.867444540524407e1 4.195098323156447e0,8.931076803435332e1 4.704326429732891e0,8.991867675042035e1 5.054062339162424e0,9.030803050928618e1 5.7027442201944005e0,9.097694744504662e1 6.045563769872864e0,9.130529298421907e1 6.70116201065591e0,9.189001584918529e1 7.202832706453645e0,9.230255545915193e1 7.6995798011174195e0,9.268390112208967e1 8.580697262130082e0,9.329981793408481e1 8.697997591578932e0,9.3376362984958e1 9.696415382040442e0,9.398010216853639e1 1.0282552627351915e1,9.42970804090177e1 1.0694833172501951e1,9.450450769999291e1 1.1693250962963461e1,9.495668366524528e1 1.2558401504082596e1,9.529434288395056e1 1.269166875342497e1,9.53420871643625e1 1.369008654388648e1,9.566494194513609e1 1.468850433434799e1,9.592851525136737e1 1.5686922124809499e1,9.613530714533488e1 1.6685339915271015e1,9.628718125456645e1 1.672097878690928e1,9.629160535888343e1 " /><polyline points="1.8682175496194034e1,7.960211658361402e1 1.829842767767473e1,7.950305835282481e1 1.7938041854260643e1,7.933814328502456e1 1.7683757705732525e1,7.916959989887255e1 1.7299941094685668e1,7.879535855417532e1 1.7015649422051855e1,7.834088081009169e1 1.685173856820669e1,7.785450072976634e1 1.680242802749125e1,7.734361833515882e1 1.687145205913733e1,7.683027386860452e1 1.7056141580912414e1,7.634635586022594e1 1.7328938341763756e1,7.593842542032414e1 1.7683757705732525e1,7.55994143062257e1 1.8095990385219775e1,7.534909338529306e1 1.8682175496194034e1,7.516689761539757e1 1.9184762969450592e1,7.514065293247947e1 1.9680593286655544e1,7.522688081773894e1 2.000383398972178e1,7.534909338529306e1 2.036414767141419e1,7.556078700812311e1 2.0679011077117053e1,7.583556177936465e1 2.1043770651388563e1,7.634635586022594e1 2.1228460177262114e1,7.683027386785864e1 2.129748420909796e1,7.734361833515882e1 2.1248173668328434e1,7.785450073001931e1 2.1084262812927896e1,7.834088081009169e1 2.0905445436319315e1,7.865344910003073e1 2.0679011077117053e1,7.89334527982657e1 2.0161843622731986e1,7.933814328502456e1 1.9680593286655544e1,7.954213338126715e1 1.9184762969451064e1,7.962836126653208e1 1.8682175496194034e1,7.960211658361402e1 " /><polyline points="1.414875637229598e2,7.954213338126715e1 1.410063133868833e2,7.933814328502456e1 1.4048914593249827e2,7.893345279826572e1 1.4026271157329597e2,7.865344910003074e1 1.400838941966874e2,7.834088081009169e1 1.3991998334128687e2,7.785450073001931e1 1.3987067280051735e2,7.734361833515882e1 1.399396968323532e2,7.683027386785864e1 1.4012438635822673e2,7.634635586022594e1 1.4048914593249827e2,7.583556177936464e1 1.4080400933820113e2,7.55607870081231e1 1.4116432301989352e2,7.534909338529306e1 1.414875637229598e2,7.522688081773893e1 1.4198339404016474e2,7.514065293247947e1 1.4248598151342128e2,7.516689761539757e1 1.4307216662439552e2,7.534909338529306e1 1.434843993038828e2,7.559941430622571e1 1.4383921866785155e2,7.593842542032415e1 1.4411201542870288e2,7.634635586022594e1 1.4429670495047796e2,7.683027386860452e1 1.4436572898212404e2,7.734361833515882e1 1.4431641844140862e2,7.785450072976634e1 1.4415250758756343e2,7.834088081009169e1 1.438682159149296e2,7.87953585541753e1 1.434843993038828e2,7.916959989887253e1 1.4323011515535467e2,7.933814328502456e1 1.4286972933194056e2,7.950305835282478e1 1.4248598151342128e2,7.960211658361402e1 1.4198339404016428e2,7.96283612665321e1 1.414875637229598e2,7.954213338126715e1 " /><polyline points="5.162996258142387e1,4.871026368494465e1 5.076208612124389e1,4.8423006562105435e1 5.063154479096235e1,4.8373701701799675e1 4.963312700050085e1,4.7940364512027934e1 4.86798578281608e1,4.742574408717255e1 4.863470921003933e1,4.739869597850676e1 4.763629141957783e1,4.6731475141857565e1 4.7242624503396364e1,4.6428481612239686e1 4.6637873629116314e1,4.5911988226524215e1 4.613756360247326e1,4.5431219137306805e1 4.563945583865481e1,4.4895672195143845e1 4.525316177048658e1,4.443395666237394e1 4.4641038048193295e1,4.359827204948155e1 4.453430303294419e1,4.3436694187441056e1 4.394916581579214e1,4.2439431712508174e1 4.364262025773179e1,4.181721814040078e1 4.3477680947480565e1,4.144216923757531e1 4.310653076022024e1,4.0444906762642425e1 4.28266713986404e1,3.944764428770956e1 4.2644202467270276e1,3.852804961430717e1 4.26319951572315e1,3.8450381812776676e1 4.251857348315038e1,3.745311933784381e1 4.248422914920762e1,3.645585686291093e1 4.252831835504088e1,3.545859438797806e1 4.2644202467270276e1,3.450736386295214e1 4.2651668864435365e1,3.446133191304518e1 4.285665975910304e1,3.346406943811231e1 4.31474614725189e1,3.246680696317943e1 4.353049616527849e1,3.1469544488246562e1 4.364262025773179e1,3.1218210540703318e1 4.4015249192001924e1,3.047228201331368e1 4.461570823286088e1,2.94750195383808e1 4.4641038048193295e1,2.9437156584574936e1 4.535305173741756e1,2.8477757063447932e1 4.563945583865481e1,2.8139756446655745e1 4.626114964116138e1,2.748049458851505e1 4.6637873629116314e1,2.712344041470712e1 4.739953184068201e1,2.6483232113582183e1 4.763629141957783e1,2.6303953499262406e1 4.863470921003933e1,2.563673266259744e1 4.889197160285781e1,2.54859696386493e1 4.963312700050085e1,2.509506412907683e1 5.063154479096235e1,2.4661726939304504e1 5.1110629663281024e1,2.4488707163716434e1 5.162996258142387e1,2.4325164956159526e1 5.262838037188537e1,2.4077521112511565e1 5.362679816234689e1,2.391355318484039e1 5.4625215952808404e1,2.383001663153172e1 5.5623633743269906e1,2.382532324588297e1 5.662205153373142e1,2.3899385050474862e1 5.7620469324192925e1,2.4053605857640868e1 5.861888711465444e1,2.4291018535765343e1 5.9257527459077714e1,2.4488707163716434e1 5.9617304905115944e1,2.4616600772500817e1 6.061572269557746e1,2.5037851891722088e1 6.147618540733892e1,2.54859696386493e1 6.161414048603896e1,2.5565805677875986e1 6.261255827650048e1,2.621685570194939e1 6.2968625170404614e1,2.6483232113582183e1 6.361097606696198e1,2.701627245761191e1 6.410700736872113e1,2.748049458851505e1 6.46093938574235e1,2.8005756232414022e1 6.501510527225477e1,2.8477757063447932e1 6.560781164788501e1,2.92626617901076e1 6.575244877673326e1,2.94750195383808e1 6.635290781761373e1,3.047228201331368e1 6.660622943834652e1,3.0965735594224157e1 6.683766084433677e1,3.1469544488246562e1 6.72206955370964e1,3.246680696317943e1 6.751149725051225e1,3.346406943811231e1 6.760464722880803e1,3.386828654039955e1 6.771648814517992e1,3.446133191304518e1 6.783983865457441e1,3.545859438797806e1 6.788392786040765e1,3.645585686291093e1 6.784958352646491e1,3.745311933784381e1 6.773616185238379e1,3.8450381812776676e1 6.760464722880803e1,3.916714283420415e1 6.754148561097489e1,3.944764428770956e1 6.726162624939505e1,4.0444906762642425e1 6.689047606213481e1,4.144216923757531e1 6.660622943834652e1,4.206969306369977e1 6.641899119382327e1,4.2439431712508174e1 6.583385397666905e1,4.3436694187441056e1 6.560781164788501e1,4.377276685377703e1 6.511499523916962e1,4.443395666237394e1 6.46093938574235e1,4.502967240905348e1 6.423059340727204e1,4.5431219137306805e1 6.361097606696198e1,4.601915618356395e1 6.312553250735377e1,4.6428481612239686e1 6.261255827650048e1,4.681857293917557e1 6.168829916230257e1,4.742574408717255e1 6.161414048603896e1,4.746962296322292e1 6.061572269557746e1,4.799757674938246e1 5.9617304905115944e1,4.841882786860336e1 5.960607088870087e1,4.8423006562105435e1 5.861888711465444e1,4.874441010533884e1 5.7620469324192925e1,4.898182278346331e1 5.662205153373142e1,4.913604359062932e1 5.5623633743269906e1,4.921010539522121e1 5.4625215952808404e1,4.920541200957246e1 5.362679816234689e1,4.912187545626379e1 5.262838037188537e1,4.8957907528592614e1 5.162996258142387e1,4.871026368494465e1 " /><polyline points="1.0254926989496089e2,4.8744410105338844e1 1.0156208612091443e2,4.8423006562105435e1 1.0155085210449937e2,4.8418827868603366e1 1.0055243431403787e2,4.7997576749382475e1 9.955401652357635e1,4.7469622963222925e1 9.947985784731273e1,4.742574408717255e1 9.855559873311485e1,4.681857293917559e1 9.804262450226153e1,4.6428481612239686e1 9.755718094265333e1,4.6019156183563965e1 9.693756360234325e1,4.5431219137306805e1 9.655876315219183e1,4.502967240905352e1 9.605316177044568e1,4.443395666237394e1 9.556034536173031e1,4.377276685377707e1 9.533430303294625e1,4.3436694187441056e1 9.474916581579203e1,4.2439431712508174e1 9.45619275712688e1,4.2069693063699795e1 9.427768094748049e1,4.144216923757531e1 9.390653076022025e1,4.0444906762642425e1 9.362667139864041e1,3.944764428770956e1 9.35635097808073e1,3.916714283420428e1 9.343199515723151e1,3.8450381812776676e1 9.331857348315039e1,3.745311933784381e1 9.328422914920763e1,3.645585686291093e1 9.332831835504089e1,3.545859438797806e1 9.345166886443538e1,3.446133191304518e1 9.35635097808073e1,3.386828654039942e1 9.365665975910305e1,3.346406943811231e1 9.39474614725189e1,3.246680696317943e1 9.433049616527855e1,3.1469544488246562e1 9.45619275712688e1,3.0965735594224128e1 9.481524919200157e1,3.047228201331368e1 9.541570823288204e1,2.94750195383808e1 9.556034536173031e1,2.9262661790107558e1 9.615305173736053e1,2.8477757063447932e1 9.655876315219183e1,2.8005756232413994e1 9.706114964089417e1,2.748049458851505e1 9.755718094265333e1,2.7016272457611898e1 9.819953183921068e1,2.6483232113582183e1 9.855559873311485e1,2.621685570194937e1 9.955401652357635e1,2.556580567787598e1 9.969197160227638e1,2.54859696386493e1 1.0055243431403787e2,2.5037851891722074e1 1.0155085210449937e2,2.4616600772500814e1 1.0191062955053759e2,2.4488707163716434e1 1.0254926989496089e2,2.4291018535765335e1 1.0354768768542239e2,2.4053605857640868e1 1.045461054758839e2,2.3899385050474855e1 1.0554452326634541e2,2.382532324588297e1 1.0654294105680692e2,2.383001663153172e1 1.0754135884726843e2,2.391355318484039e1 1.0853977663772996e2,2.4077521112511572e1 1.0953819442819146e2,2.4325164956159536e1 1.1005752734633428e2,2.4488707163716434e1 1.1053661221865296e2,2.466172693930451e1 1.1153503000911446e2,2.509506412907684e1 1.1227618540675749e2,2.54859696386493e1 1.12533447799576e2,2.5636732662597453e1 1.135318655900375e2,2.6303953499262427e1 1.1376862516893328e2,2.6483232113582183e1 1.14530283380499e2,2.7123440414707133e1 1.1490700736845392e2,2.748049458851505e1 1.155287011709605e2,2.8139756446655767e1 1.1581510527219774e2,2.8477757063447932e1 1.1652711896142203e2,2.943715658457498e1 1.1655244877675442e2,2.94750195383808e1 1.1715290781761338e2,3.047228201331368e1 1.1752553675188354e2,3.121821054070338e1 1.176376608443368e2,3.1469544488246562e1 1.180206955370964e2,3.246680696317943e1 1.1831149725051226e2,3.346406943811231e1 1.1851648814517993e2,3.446133191304518e1 1.1852395454234504e2,3.450736386295223e1 1.1863983865457442e2,3.545859438797806e1 1.1868392786040768e2,3.645585686291093e1 1.1864958352646492e2,3.745311933784381e1 1.185361618523838e2,3.8450381812776676e1 1.1852395454234504e2,3.852804961430709e1 1.183414856109749e2,3.944764428770956e1 1.1806162624939506e2,4.0444906762642425e1 1.1769047606213474e2,4.144216923757531e1 1.1752553675188354e2,4.181721814040072e1 1.1721899119382316e2,4.2439431712508174e1 1.1663385397667112e2,4.3436694187441056e1 1.1652711896142203e2,4.3598272049481515e1 1.1591499523912871e2,4.443395666237394e1 1.155287011709605e2,4.489567219514383e1 1.1503059340714204e2,4.5431219137306805e1 1.14530283380499e2,4.59119882265242e1 1.1392553250621893e2,4.6428481612239686e1 1.135318655900375e2,4.6731475141857544e1 1.12533447799576e2,4.7398695978506744e1 1.1248829918145451e2,4.742574408717255e1 1.1153503000911446e2,4.794036451202793e1 1.1053661221865296e2,4.837370170179967e1 1.104060708883714e2,4.8423006562105435e1 1.0953819442819146e2,4.871026368494464e1 1.0853977663772996e2,4.895790752859261e1 1.0754135884726843e2,4.912187545626379e1 1.0654294105680692e2,4.920541200957246e1 1.0554452326634541e2,4.921010539522121e1 1.045461054758839e2,4.913604359062932e1 1.0354768768542239e2,4.898182278346331e1 1.0254926989496089e2,4.8744410105338844e1 " /><polyline points="2.56711000294246e1,1.5745549343017778e1 2.513271802169733e1,1.5513344889320559e1 2.467268223896309e1,1.5149818001555293e1 2.4428809457397072e1,1.485158125988793e1 2.4239443113140474e1,1.4516082414387677e1 2.4081323114926562e1,1.4029025234313169e1 2.4037537414112315e1,1.351881993945481e1 2.411226048515489e1,1.300474922571742e1 2.4302990550905683e1,1.2521557464521928e1 2.467268223896309e1,1.2016113928953994e1 2.5003483763426146e1,1.1735806977145053e1 2.538198649120973e1,1.152429498958906e1 2.56711000294246e1,1.1420382110979125e1 2.616737558453491e1,1.1338120269645875e1 2.666951781988611e1,1.1368280054394534e1 2.7187148425219217e1,1.152429498958906e1 2.7667935610347627e1,1.1811180994479656e1 2.800407790839789e1,1.2135146025893405e1 2.826605345346738e1,1.2521557464521928e1 2.845678351451177e1,1.3004749226599936e1 2.8531506585319438e1,1.351881993945481e1 2.848772088453775e1,1.402902523415235e1 2.8329600887347144e1,1.4516082414387677e1 2.804931128821312e1,1.4975292260974562e1 2.7667935610347627e1,1.5354750473321726e1 2.7436341037158286e1,1.5513344889320559e1 2.7065967895808974e1,1.5690665117683038e1 2.666951781988611e1,1.5797651399608487e1 2.616737558453441e1,1.5827811184357127e1 2.56711000294246e1,1.5745549343017778e1 " /><polyline points="1.344986391897292e2,1.5797651399608492e1 1.3410218911380633e2,1.5690665117683036e1 1.33731815972457e2,1.5513344889320559e1 1.3350022139926767e2,1.5354750473321737e1 1.3311884572140218e2,1.497529226097457e1 1.3283855612226816e2,1.4516082414387677e1 1.3268043612507753e2,1.4029025234152353e1 1.3263665042429585e2,1.351881993945481e1 1.3271137349510352e2,1.300474922659993e1 1.3290210355614792e2,1.2521557464521928e1 1.3316407910121742e2,1.2135146025893391e1 1.3350022139926767e2,1.1811180994479644e1 1.3398100858439608e2,1.152429498958906e1 1.344986391897292e2,1.136828005439453e1 1.3500078142508042e2,1.1338120269645877e1 1.3549705698019073e2,1.142038211097913e1 1.3578617051840558e2,1.152429498958906e1 1.3616467324618918e2,1.1735806977145051e1 1.364954747706522e2,1.2016113928954008e1 1.368651664587096e2,1.2521557464521928e1 1.3705589652446042e2,1.3004749225717418e1 1.37130619595503e2,1.351881993945481e1 1.370868338946887e2,1.4029025234313165e1 1.3692871389647485e2,1.4516082414387677e1 1.3673934755221825e2,1.4851581259887926e1 1.364954747706522e2,1.5149818001555278e1 1.3603543898791798e2,1.5513344889320559e1 1.3549705698019073e2,1.5745549343017771e1 1.350007814250809e2,1.5827811184357126e1 1.344986391897292e2,1.5797651399608492e1 " /></g></svg>