<svg xmlns="http://www.w3.org/2000/svg" version="1.1" width="158.400000mm" height="155.560000mm" viewBox="0 0 158.400000 155.560000">
		<defs>
			<style type="text/css"><![CDATA[
				.cut {
    stroke: black;
    stroke-width: 0.1;
    fill: none;
    color: black;
}

.etch {
    stroke: red;
    stroke-width: 0.1;
    fill: none;
    color: red;
}

.route {
    stroke: fuchsia;
    stroke-width: 0.1;
    fill: none;
}

text {
    text-anchor: middle;
    font-size: 15;
    font-weight: light;
}

text.etch {
    fill: red;
}

text.cut {
    font-size: 8;
    fill: black;
}
			]]></style>
		</defs>
	<g transform="translate(5.000000, 5.000000)"><g transform="translate(74.200000, 72.780000)"><g transform="translate(-68.200000, -67.780000)"><g transform="translate(68.200000, 0.000000)"><g transform="translate(-63.200000,0)"></g></g>
<g transform="translate(68.200000, 10.000000)"><g transform="translate(-9.959292,0)"><g transform="translate(9.959292, 11.500000)"><g transform="translate(-9.959292, -11.500000)"><path d="M9.95929214352105 0 l9.95929214352105 5.75 l0 11.5 l-9.95929214352105 5.75 l-9.95929214352105 -5.75 l0 -11.5 Z" class="route" /></g>
<g transform="translate(-9.300000, -9.300000)"><circle r="8.000000" cx="9.300000" cy="9.300000" class="cut" /></g></g></g></g>
<g transform="translate(68.200000, 83.560000)"><g transform="translate(-63.200000,0)"></g></g>
<g transform="translate(68.200000, 128.560000)"><g transform="translate(-68.200000,0)"><g transform="translate(26.780000, 0)"><rect width="28.280000" height="7.000000" class="cut" /></g>
<g transform="translate(81.340000, 0)"><rect width="28.280000" height="7.000000" class="cut" /></g></g></g></g>
<g transform="translate(-74.200000, -72.780000)"><path d="M0 0 l148.4 0 l0 29.112 l-6 0 l0 12.656 l-8.2 0 l0 -2.15 l-3 0 l0 2.15 l-8.2 0 l0 3.8 l8.2 0 l0 2.15 l3 0 l0 -2.15 l8.2 0 l0 12.656 l6 0 l0 29.112 l-6 0 l0 12.656 l-8.2 0 l0 -2.15 l-3 0 l0 2.15 l-8.2 0 l0 3.8 l8.2 0 l0 2.15 l3 0 l0 -2.15 l8.2 0 l0 12.656 l6 0 l0 29.112 l-148.4 0 l0 -29.112 l6 0 l0 -12.656 l8.2 0 l0 2.15 l3 0 l0 -2.15 l8.2 0 l0 -3.8 l-8.2 0 l0 -2.15 l-3 0 l0 2.15 l-8.2 0 l0 -12.656 l-6 0 l0 -29.112 l6 0 l0 -12.656 l8.2 0 l0 2.15 l3 0 l0 -2.15 l8.2 0 l0 -3.8 l-8.2 0 l0 -2.15 l-3 0 l0 2.15 l-8.2 0 l0 -12.656 l-6 0 Z" class="cut" />
<path d="M-1.5875 -1.5875 l151.575 0 l0 32.287 l-6 0 l0 12.656 l-11.375 0 l0 -2.15 l0.175 0 l0 2.15 l-8.2 0 l0 0.625 l8.2 0 l0 2.15 l-0.175 0 l0 -2.15 l11.375 0 l0 12.656 l6 0 l0 32.287 l-6 0 l0 12.656 l-11.375 0 l0 -2.15 l0.175 0 l0 2.15 l-8.2 0 l0 0.625 l8.2 0 l0 2.15 l-0.175 0 l0 -2.15 l11.375 0 l0 12.656 l6 0 l0 32.287 l-151.575 0 l0 -32.287 l6 0 l0 -12.656 l11.375 0 l0 2.15 l-0.175 0 l0 -2.15 l8.2 0 l0 -0.625 l-8.2 0 l0 -2.15 l0.175 0 l0 2.15 l-11.375 0 l0 -12.656 l-6 0 l0 -32.287 l6 0 l0 -12.656 l11.375 0 l0 2.15 l-0.175 0 l0 -2.15 l8.2 0 l0 -0.625 l-8.2 0 l0 -2.15 l0.175 0 l0 2.15 l-11.375 0 l0 -12.656 l-6 0 Z" class="cut" />
<circle r="1.900000" cx="3.000000" cy="14.556000" class="cut" />
<circle r="1.900000" cx="3.000000" cy="72.780000" class="cut" />
<circle r="1.900000" cx="3.000000" cy="131.004000" class="cut" />
<circle r="1.900000" cx="145.400000" cy="14.556000" class="cut" />
<circle r="1.900000" cx="145.400000" cy="72.780000" class="cut" />
<circle r="1.900000" cx="145.400000" cy="131.004000" class="cut" /></g></g></g></svg>