<svg xmlns="http://www.w3.org/2000/svg" version="1.1" width="202.700000mm" height="145.860000mm" viewBox="0 0 202.700000 145.860000">
		<defs>
			<style type="text/css"><![CDATA[
				.cut {
    stroke: black;
    stroke-width: 0.1;
    fill: none;
    color: black;
}

.etch {
    stroke: red;
    stroke-width: 0.1;
    fill: none;
    color: red;
}

.route {
    stroke: fuchsia;
    stroke-width: 0.1;
    fill: none;
}

text {
    text-anchor: middle;
    font-size: 15;
    font-weight: light;
}

text.etch {
    fill: red;
}

text.cut {
    font-size: 8;
    fill: black;
}
			]]></style>
		</defs>
	<g transform="translate(5.000000, 5.000000)"><g transform="translate(96.350000, 67.930000)"><g transform="translate(-90.050000, -62.930000)"><g transform="translate(90.050000, 0.000000)"><g transform="translate(-46.760000,0)"><g transform="translate(0.000000, 0.000000)"><g transform="translate(12.875000, 0.000000)"><g transform="translate(-12.875000,0)"><circle r="11.500000" cx="12.875000" cy="15.890000" class="cut" />
<circle r="2.700000" cx="3.800000" cy="3.800000" class="cut" />
<circle r="2.700000" cx="21.950000" cy="27.980000" class="cut" /></g></g>
<g transform="translate(12.875000, 36.780000)"><g transform="translate(-12.875000,0)"><circle r="11.500000" cx="12.875000" cy="15.890000" class="cut" />
<circle r="2.700000" cx="3.800000" cy="3.800000" class="cut" />
<circle r="2.700000" cx="21.950000" cy="27.980000" class="cut" /></g></g></g>
<g transform="translate(30.750000, 0.000000)"></g>
<g transform="translate(40.750000, 0.000000)"><g transform="translate(26.385000, 15.100000)"><g transform="translate(-16.800000, -12.550000)"><rect width="33.600000" height="25.100000" class="cut" /></g></g>
<circle r="1.750000" cx="5.010000" cy="15.100000" class="cut" />
<circle r="1.750000" cx="47.760000" cy="15.100000" class="cut" /></g></g></g>
<g transform="translate(90.050000, 73.560000)"><g transform="translate(-85.050000,0)"></g></g>
<g transform="translate(90.050000, 118.560000)"><g transform="translate(-90.050000,0)"><g transform="translate(25.228571, 0)"><rect width="26.728571" height="7.300000" class="cut" /></g>
<g transform="translate(76.685714, 0)"><rect width="26.728571" height="7.300000" class="cut" /></g>
<g transform="translate(128.142857, 0)"><rect width="26.728571" height="7.300000" class="cut" /></g></g></g></g>
<g transform="translate(-96.350000, -67.930000)"><path d="M6.3 0 l180.1 0 l0 11.686 l-8.05 0 l0 -2.15 l-3 0 l0 2.15 l-8.05 0 l0 3.8 l8.05 0 l0 2.15 l3 0 l0 -2.15 l8.05 0 l0 11.686 l0 1 l6.3 0 l0 25.172 l-6.3 0 l0 1 l0 11.686 l-8.05 0 l0 -2.15 l-3 0 l0 2.15 l-8.05 0 l0 3.8 l8.05 0 l0 2.15 l3 0 l0 -2.15 l8.05 0 l0 11.686 l0 1 l6.3 0 l0 25.172 l-6.3 0 l0 1 l0 11.686 l-8.05 0 l0 -2.15 l-3 0 l0 2.15 l-8.05 0 l0 3.8 l8.05 0 l0 2.15 l3 0 l0 -2.15 l8.05 0 l0 11.686 l-180.1 0 l0 -11.686 l8.05 0 l0 2.15 l3 0 l0 -2.15 l8.05 0 l0 -3.8 l-8.05 0 l0 -2.15 l-3 0 l0 2.15 l-8.05 0 l0 -11.686 l0 -1 l-6.3 0 l0 -25.172 l6.3 0 l0 -1 l0 -11.686 l8.05 0 l0 2.15 l3 0 l0 -2.15 l8.05 0 l0 -3.8 l-8.05 0 l0 -2.15 l-3 0 l0 2.15 l-8.05 0 l0 -11.686 l0 -1 l-6.3 0 l0 -25.172 l6.3 0 l0 -1 l0 -11.686 l8.05 0 l0 2.15 l3 0 l0 -2.15 l8.05 0 l0 -3.8 l-8.05 0 l0 -2.15 l-3 0 l0 2.15 l-8.05 0 l0 -11.686 Z" class="cut" />
<path d="M4.7125 -1.5875 l183.275 0 l0 3.175 l0 11.686 l-11.225 0 l0 -2.15 l0.175 0 l0 2.15 l-8.05 0 l0 0.625 l8.05 0 l0 2.15 l-0.175 0 l0 -2.15 l11.225 0 l0 11.686 l0 1 l6.3 0 l0 28.347 l-6.3 0 l0 1 l0 11.686 l-11.225 0 l0 -2.15 l0.175 0 l0 2.15 l-8.05 0 l0 0.625 l8.05 0 l0 2.15 l-0.175 0 l0 -2.15 l11.225 0 l0 11.686 l0 1 l6.3 0 l0 28.347 l-6.3 0 l0 1 l0 11.686 l-11.225 0 l0 -2.15 l0.175 0 l0 2.15 l-8.05 0 l0 0.625 l8.05 0 l0 2.15 l-0.175 0 l0 -2.15 l11.225 0 l0 11.686 l0 3.175 l-183.275 0 l0 -3.175 l0 -11.686 l11.225 0 l0 2.15 l-0.175 0 l0 -2.15 l8.05 0 l0 -0.625 l-8.05 0 l0 -2.15 l0.175 0 l0 2.15 l-11.225 0 l0 -11.686 l0 -1 l-6.3 0 l0 -28.347 l6.3 0 l0 -1 l0 -11.686 l11.225 0 l0 2.15 l-0.175 0 l0 -2.15 l8.05 0 l0 -0.625 l-8.05 0 l0 -2.15 l0.175 0 l0 2.15 l-11.225 0 l0 -11.686 l0 -1 l-6.3 0 l0 -28.347 l6.3 0 l0 -1 l0 -11.686 l11.225 0 l0 2.15 l-0.175 0 l0 -2.15 l8.05 0 l0 -0.625 l-8.05 0 l0 -2.15 l0.175 0 l0 2.15 l-11.225 0 l0 -11.686 Z" class="cut" />
<circle r="1.900000" cx="3.150000" cy="40.758000" class="cut" />
<circle r="1.900000" cx="3.150000" cy="95.102000" class="cut" />
<circle r="1.900000" cx="189.550000" cy="40.758000" class="cut" />
<circle r="1.900000" cx="189.550000" cy="95.102000" class="cut" /></g></g></g></svg>