<svg xmlns="http://www.w3.org/2000/svg" version="1.1" width="202.700000mm" height="149.660000mm" viewBox="0 0 202.700000 149.660000">
		<defs>
			<style type="text/css"><![CDATA[
				.cut {
    stroke: black;
    stroke-width: 0.1;
    fill: none;
    color: black;
}

.etch {
    stroke: red;
    stroke-width: 0.1;
    fill: none;
    color: red;
}

.route {
    stroke: fuchsia;
    stroke-width: 0.1;
    fill: none;
}

text {
    text-anchor: middle;
    font-size: 15;
    font-weight: light;
}

text.etch {
    fill: red;
}

text.cut {
    font-size: 8;
    fill: black;
}
			]]></style>
		</defs>
	<g transform="translate(5.000000, 5.000000)"><g transform="translate(96.350000, 69.830000)"><g transform="translate(-85.050000, -69.830000)"><g transform="translate(85.050000, 0.000000)"><g transform="translate(-85.050000,0)"></g></g>
<g transform="translate(85.050000, 10.000000)"><g transform="translate(-46.760000,0)"><g transform="translate(0.000000, 0.000000)"><g transform="translate(12.875000, 0.000000)"><g transform="translate(-12.875000,0)"><circle r="11.500000" cx="12.875000" cy="15.890000" class="cut" />
<circle r="2.700000" cx="3.800000" cy="3.800000" class="cut" />
<circle r="2.700000" cx="21.950000" cy="27.980000" class="cut" /></g></g>
<g transform="translate(12.875000, 36.780000)"><g transform="translate(-12.875000,0)"><circle r="11.500000" cx="12.875000" cy="15.890000" class="cut" />
<circle r="2.700000" cx="3.800000" cy="3.800000" class="cut" />
<circle r="2.700000" cx="21.950000" cy="27.980000" class="cut" /></g></g></g>
<g transform="translate(30.750000, 0.000000)"></g>
<g transform="translate(40.750000, 0.000000)"><g transform="translate(26.385000, 15.100000)"><g transform="translate(-16.800000, -12.550000)"><rect width="33.600000" height="25.100000" class="cut" /></g></g>
<circle r="1.750000" cx="5.010000" cy="15.100000" class="cut" />
<circle r="1.750000" cx="47.760000" cy="15.100000" class="cut" /></g></g></g>
<g transform="translate(85.050000, 83.560000)"><g transform="translate(-85.050000,0)"></g></g>
<g transform="translate(85.050000, 128.560000)"><g transform="translate(-85.050000,0)"></g></g>
<g transform="translate(85.050000, 139.560000)"><g transform="translate(-85.050000,0)"></g></g></g>
<g transform="translate(-96.350000, -69.830000)"><rect width="192.700000" height="139.660000" class="cut" /><circle r="1.900000" cx="3.150000" cy="41.898000" class="cut" /><circle r="1.900000" cx="3.150000" cy="97.762000" class="cut" /><circle r="1.900000" cx="189.550000" cy="41.898000" class="cut" /><circle r="1.900000" cx="189.550000" cy="97.762000" class="cut" /><circle r="1.900000" cx="44.892857" cy="128.360000" class="cut" /><circle r="1.900000" cx="96.350000" cy="128.360000" class="cut" /><circle r="1.900000" cx="147.807143" cy="128.360000" class="cut" /></g></g></g></svg>