<?xml version="1.0" encoding="UTF-8" standalone="no"?>
<!-- Created with Inkscape (http://www.inkscape.org/) -->

<svg
   xmlns:dc="http://purl.org/dc/elements/1.1/"
   xmlns:cc="http://creativecommons.org/ns#"
   xmlns:rdf="http://www.w3.org/1999/02/22-rdf-syntax-ns#"
   xmlns:svg="http://www.w3.org/2000/svg"
   xmlns="http://www.w3.org/2000/svg"
   xmlns:sodipodi="http://sodipodi.sourceforge.net/DTD/sodipodi-0.dtd"
   xmlns:inkscape="http://www.inkscape.org/namespaces/inkscape"
   id="svg2"
   version="1.1"
   inkscape:version="0.47 r22583"
   width="278.47568"
   height="219.3954"
   sodipodi:docname="sofa_outline.svg">
  <metadata
     id="metadata11">
    <rdf:RDF>
      <cc:Work
         rdf:about="">
        <dc:format>image/svg+xml</dc:format>
        <dc:type
           rdf:resource="http://purl.org/dc/dcmitype/StillImage" />
      </cc:Work>
    </rdf:RDF>
  </metadata>
  <defs
     id="defs9">
    <inkscape:perspective
       sodipodi:type="inkscape:persp3d"
       inkscape:vp_x="0 : 0.5 : 1"
       inkscape:vp_y="0 : 1000 : 0"
       inkscape:vp_z="1 : 0.5 : 1"
       inkscape:persp3d-origin="0.5 : 0.33333333 : 1"
       id="perspective13" />
  </defs>
  <sodipodi:namedview
     pagecolor="#ffffff"
     bordercolor="#666666"
     borderopacity="1"
     objecttolerance="10"
     gridtolerance="10"
     guidetolerance="10"
     inkscape:pageopacity="0"
     inkscape:pageshadow="2"
     inkscape:window-width="640"
     inkscape:window-height="483"
     id="namedview7"
     showgrid="false"
     inkscape:showpageshadow="false"
     showborder="false"
     inkscape:zoom="0.22425739"
     inkscape:cx="168.74516"
     inkscape:cy="-77.380568"
     inkscape:window-x="0"
     inkscape:window-y="0"
     inkscape:window-maximized="0"
     inkscape:current-layer="svg2" />
  <g
     id="g4"
     transform="translate(-203.30208,-229.40512)">
    <path
       style="fill:#000000"
       d="m 259.00002,441.67117 c -8.25,-4.27146 -21.58731,-12.10099 -29.63847,-17.39895 -16.19351,-10.65595 -16.598,-11.18381 -16.73478,-21.83861 -0.0388,-3.025 -1.90546,-25.975 -4.14806,-51 -5.17461,-57.74299 -6.0434,-73.5019 -4.46828,-81.04991 1.90924,-9.14907 4.55095,-12.45583 13.57571,-16.99339 4.32822,-2.17619 8.78558,-3.9567 9.90525,-3.9567 1.11967,0 2.81716,-0.43283 3.7722,-0.96184 7.94326,-4.39993 38.70891,-12.96951 53.73643,-14.96795 33.82625,-4.4984 77.2882,-5.37894 109.55987,-2.21968 20.19464,1.97697 25.04154,3.2843 29.19188,7.87373 2.23609,2.47267 6.74825,15.31576 6.74825,19.20774 0,1.63326 0.41231,5.12921 0.91623,7.76878 0.50393,2.63957 1.44549,9.3399 2.09235,14.88962 0.64686,5.54972 1.47206,10.55755 1.83377,11.12849 0.36171,0.57095 4.13575,1.98881 8.38677,3.15081 12.01796,3.28506 22.35407,8.77324 29.43715,15.6303 l 6.19777,6 0.55112,27 c 0.30311,14.85 0.8462,33.525 1.20685,41.5 l 0.65573,14.5 -5.38729,3.5 c -7.59376,4.93349 -12.19169,6.84782 -18.18631,7.57179 -2.86228,0.34567 -9.25414,1.89531 -14.20414,3.44363 -17.71771,5.54196 -32.84195,9.52937 -39.5,10.41392 -1.375,0.18268 -4.66677,0.84427 -7.31505,1.47021 -2.64828,0.62594 -5.18025,0.91237 -5.62659,0.63652 -0.44635,-0.27586 -3.00458,0.12145 -5.68495,0.88291 -2.68038,0.76147 -7.79841,1.8932 -11.37341,2.51496 -3.575,0.62176 -13.475,2.41942 -22,3.9948 -15.598,2.88244 -30.92523,4.76637 -45.23486,5.56001 -5.82912,0.32329 -8.43806,0.94888 -10.58895,2.53911 -1.56975,1.16056 -4.61406,2.55444 -6.76514,3.09751 -2.15108,0.54307 -5.48605,1.44907 -7.41105,2.01332 -7.55346,2.21409 -8.08275,2.08118 -23.5,-5.90113 z m 27.69228,0.26244 c 3.38389,-1.375 6.70181,-2.5 7.37314,-2.5 0.67133,0 1.49063,-0.70367 1.82065,-1.56371 0.75065,-1.95615 -3.04515,-36.03982 -4.39191,-39.43629 -0.54521,-1.375 -1.10444,-14.21155 -1.24272,-28.52566 l -0.25144,-26.02567 -4.45071,-5.16547 c -3.88982,-4.5145 -6.41031,-6.10066 -20,-12.58612 -15.11429,-7.21304 -31.41475,-12.31054 -37.93073,-11.86175 -3.83536,0.26416 -8.71208,3.86696 -12.80106,9.45709 -4.41814,6.04012 -4.65919,8.82972 -2.48059,28.70758 2.12519,19.39059 3.11489,29.93304 4.12447,43.93456 0.93408,12.95443 1.06823,13.51656 3.75366,15.72896 7.70429,6.34721 27.07267,18.68977 37.28496,23.75995 6.325,3.14022 12.625,6.34261 14,7.11641 3.69514,2.07948 8.28939,1.76502 15.19228,-1.03988 z m -17.53665,-61.95502 c -0.3606,-0.9397 -0.65563,-5.23742 -0.65563,-9.55048 0,-7.88828 -1.58019,-17.47747 -3.24308,-19.68022 -0.49231,-0.65215 -2.32652,-1.49964 -4.07602,-1.88333 -1.74949,-0.38368 -4.74924,-1.5376 -6.66609,-2.56428 -1.91686,-1.02667 -3.86318,-1.86667 -4.32517,-1.86667 -0.46199,0 -3.96455,-1.85627 -7.78347,-4.12505 -5.43482,-3.22877 -6.70566,-4.41162 -5.84889,-5.44396 1.24009,-1.49423 3.6609,-0.70727 10.24924,3.33181 2.09359,1.28351 7.26859,3.60089 11.5,5.14973 7.51369,2.75027 7.75615,2.94531 10.37535,8.34561 3.44868,7.11053 4.94015,22.72232 2.59786,27.19274 -1.2331,2.35345 -1.57355,2.52881 -2.1241,1.0941 z M 314.1577,435.883 c 5.29989,-0.85284 10.20938,-1.33064 10.90999,-1.0618 0.70061,0.26885 5.922,-0.125 11.60308,-0.87523 13.16213,-1.73815 86.97743,-16.41901 88.39718,-17.581 0.58736,-0.48072 5.76236,-2.00883 11.5,-3.39581 6.31463,-1.52645 10.92543,-3.19196 11.68207,-4.21979 1.44009,-1.95624 1.73097,-20.0083 0.35734,-22.17632 -0.70213,-1.10818 -2.41514,-0.80188 -9.23469,1.65121 -4.60496,1.65647 -13.32265,4.4581 -19.37265,6.22583 -6.05,1.76774 -16.65875,4.92771 -23.575,7.02215 -10.26021,3.10709 -15.23033,4.01039 -27,4.90711 -7.93375,0.60447 -19.09243,1.56512 -24.79706,2.13478 -5.70463,0.56966 -17.85463,0.98077 -27,0.91357 -9.14537,-0.0672 -17.24453,-0.0934 -17.99813,-0.0581 -1.07973,0.0505 -1.23335,1.38894 -0.72468,6.31404 0.35503,3.4375 0.91076,9.175 1.23494,12.75 0.5688,6.27249 1.62742,9 3.49314,9 0.48858,0 5.22459,-0.69777 10.52447,-1.55061 z m 150.40449,-30.59088 c 2.44081,-1.17781 6.4142,-3.75936 8.82977,-5.73677 l 4.39194,-3.59528 -0.82245,-23.01323 c -0.45234,-12.65728 -0.69667,-29.59785 -0.54294,-37.64572 l 0.2795,-14.63248 -6.42283,-6.42283 c -7.22208,-7.22208 -17.61705,-12.82993 -27.43585,-14.80101 -3.21162,-0.64472 -7.63931,-1.563 -9.83931,-2.04063 -2.2,-0.47763 -6.925,-1.16323 -10.5,-1.52355 -5.7402,-0.57855 -6.82146,-0.4007 -9.25,1.52151 -1.5125,1.19715 -2.75,2.8372 -2.75,3.64455 0,0.80735 -0.91887,2.71075 -2.04193,4.22978 -1.46451,1.98085 -2.08968,4.48436 -2.21077,8.85309 -0.17198,6.20519 1.12531,9.30406 3.89502,9.30406 0.76858,0 3.17954,1.125 5.35768,2.5 2.17814,1.375 5.07893,2.5 6.4462,2.5 1.36727,0 3.96371,0.63082 5.76987,1.40182 1.80616,0.771 5.98393,2.2335 9.28393,3.25 7.68509,2.36724 13.76225,6.41841 16.6588,11.10513 2.12585,3.43969 2.29029,4.81517 2.31481,19.36243 0.0238,14.09125 -0.16707,15.87403 -1.90514,17.7995 -1.72048,1.90597 -1.80792,2.65561 -0.80024,6.86045 0.62221,2.59637 1.65206,7.42067 2.28854,10.72067 1.58152,8.19971 1.69542,8.5 3.22402,8.5 0.73895,0 3.34057,-0.96367 5.78138,-2.14149 z m -5.54254,-58.14403 c -0.41848,-0.98204 -0.568,-5.81954 -0.33227,-10.75 0.25651,-5.36527 0.0427,-8.96448 -0.53254,-8.96448 -1.67936,0 -13.05865,-5.85513 -15.5649,-8.0088 -1.70884,-1.46845 -2.09937,-2.38175 -1.34221,-3.13891 1.51148,-1.51148 12.64432,4.59227 17.39656,9.53794 3.63979,3.78793 3.7354,4.07584 3.3225,10.00497 -0.23383,3.35764 -0.82139,7.6798 -1.3057,9.6048 -0.70893,2.81782 -1.02886,3.15199 -1.64144,1.71448 z m -29.53969,-33.23865 c -1.89253,-2.28037 -0.38831,-2.97342 2.43646,-1.12257 1.36334,0.8933 3.17739,1.35611 4.0312,1.02847 0.85382,-0.32764 1.5524,-0.0976 1.5524,0.51128 0,1.66995 -6.5716,1.32811 -8.02006,-0.41718 z m -76.47994,90.69932 c 34.17813,-2.96679 31.68769,-2.51365 55.5,-10.09838 8.525,-2.71539 20,-6.3399 25.5,-8.05446 13.06329,-4.07233 17.06605,-6.71346 18.57835,-12.25854 1.69042,-6.19818 0.49875,-22.48061 -1.88481,-25.75317 -1.00573,-1.38083 -2.11674,-3.28547 -2.46891,-4.23252 -1.0268,-2.76128 -9.80695,-7.7358 -13.72463,-7.7759 -1.925,-0.0197 -7.325,-1.6418 -12,-3.60466 -15.8131,-6.63935 -14.99926,-6.48323 -33.75971,-6.47636 -12.81953,0.005 -18.58504,0.39813 -21.61201,1.47484 -2.27055,0.80764 -13.35328,2.20433 -24.62828,3.10375 -24.88764,1.98531 -31.1855,2.85765 -41.39783,5.73413 l -7.89783,2.22457 0.61997,25.02077 c 0.37838,15.2706 1.20176,28.13825 2.11294,33.02078 0.82114,4.4 1.50867,8.08534 1.52786,8.18963 0.23496,1.27714 39.03603,0.91768 55.53489,-0.51448 z m -57.37573,-69.68214 c 2.40665,-0.82884 5.27573,-1.90974 6.37573,-2.402 3.2408,-1.45028 15.1619,-3.02477 27.5,-3.63207 13.00461,-0.64011 25.53931,-1.96676 38,-4.02185 4.675,-0.77103 14.01426,-1.60933 20.75391,-1.86288 6.73965,-0.25356 12.70215,-0.73804 13.25,-1.07663 0.54785,-0.33859 0.99609,-3.50495 0.99609,-7.03636 0,-7.37107 2.00424,-13.24138 6.41427,-18.78708 l 3.04238,-3.82586 9.02168,0.2894 c 8.60101,0.27591 9.03631,0.18814 9.33573,-1.88223 0.5314,-3.67447 -4.63267,-37.76164 -6.38373,-42.13797 -1.97507,-4.93619 -5.8196,-8.38205 -11.64084,-10.4337 -2.46811,-0.86986 -15.42563,-2.4547 -30.51593,-3.73241 -28.64432,-2.42534 -30.77206,-2.37247 -82.77356,2.05685 -17.91032,1.52554 -23.28048,2.39524 -36.5,5.91123 -22.2997,5.93103 -48.24116,15.968 -50.55872,19.5616 -0.71614,1.11042 -2.27039,5.83887 -3.45391,10.50765 -1.97889,7.80643 -2.0649,9.41393 -1.07009,20 0.59496,6.33122 1.20168,14.96852 1.34827,19.194 0.14658,4.22549 0.61801,8.0342 1.04761,8.4638 0.42961,0.4296 2.1327,-0.66511 3.78466,-2.4327 1.65195,-1.76759 3.47789,-3.2138 4.05764,-3.2138 0.57975,0 3.29391,-1.125 6.03147,-2.5 5.65192,-2.8388 8.46148,-3.0805 11.2542,-0.9682 1.06762,0.80751 3.54262,1.48795 5.5,1.51209 1.95738,0.0241 5.35887,0.73578 7.55887,1.58142 2.2,0.84565 5.125,1.79051 6.5,2.0997 5.03402,1.13199 29.53713,14.38143 32,17.30318 2.88622,3.42399 3.26092,3.48415 9.12427,1.46482 z"
       id="path3288" />
  </g>
</svg>
